<mxfile host="app.diagrams.net" modified="2020-12-11T22:37:56.495Z" agent="5.0 (Windows NT 10.0; Win64; x64) AppleWebKit/537.36 (KHTML, like Gecko) Chrome/87.0.4280.88 Safari/537.36" etag="hZ51-RjQLZdRD2qR2Jgd" version="14.0.1" type="github">
  <diagram id="qBLJ8SNNjGwniArIgbU-" name="Page-1">
    <mxGraphModel dx="1332" dy="506" grid="1" gridSize="10" guides="1" tooltips="1" connect="1" arrows="1" fold="1" page="1" pageScale="1" pageWidth="1169" pageHeight="827" math="0" shadow="0">
      <root>
        <mxCell id="0" />
        <mxCell id="1" parent="0" />
        <mxCell id="GlQa1Pj1re7O2YrvIxKQ-11" value="" style="ellipse;whiteSpace=wrap;html=1;aspect=fixed;fillColor=#fad7ac;strokeColor=#b46504;" parent="1" vertex="1">
          <mxGeometry x="40" y="110" width="55" height="55" as="geometry" />
        </mxCell>
        <mxCell id="GlQa1Pj1re7O2YrvIxKQ-47" value="" style="group" parent="1" vertex="1" connectable="0">
          <mxGeometry x="40" y="80" width="720" height="430" as="geometry" />
        </mxCell>
        <mxCell id="GlQa1Pj1re7O2YrvIxKQ-1" value="" style="rounded=0;whiteSpace=wrap;html=1;fillColor=#ffcccc;strokeColor=#36393d;strokeOpacity=100;" parent="GlQa1Pj1re7O2YrvIxKQ-47" vertex="1">
          <mxGeometry x="95.93123209169055" width="319.7707736389685" height="143.33333333333331" as="geometry" />
        </mxCell>
        <mxCell id="GlQa1Pj1re7O2YrvIxKQ-2" value="" style="rounded=0;whiteSpace=wrap;html=1;fillColor=#d0cee2;strokeColor=#56517e;strokeOpacity=100;" parent="GlQa1Pj1re7O2YrvIxKQ-47" vertex="1">
          <mxGeometry x="209.39828080229225" y="163.8095238095238" width="206.30372492836676" height="266.19047619047615" as="geometry" />
        </mxCell>
        <mxCell id="GlQa1Pj1re7O2YrvIxKQ-3" value="" style="rounded=0;whiteSpace=wrap;html=1;direction=south;fillColor=#b1ddf0;strokeColor=#10739e;strokeOpacity=100;" parent="GlQa1Pj1re7O2YrvIxKQ-47" vertex="1">
          <mxGeometry x="503.3810888252149" y="30.71428571428571" width="216.6189111747851" height="337.85714285714283" as="geometry" />
        </mxCell>
        <mxCell id="GlQa1Pj1re7O2YrvIxKQ-4" value="" style="rounded=1;whiteSpace=wrap;html=1;strokeOpacity=100;" parent="GlQa1Pj1re7O2YrvIxKQ-47" vertex="1">
          <mxGeometry x="116.56160458452723" y="40.95238095238095" width="123.78223495702007" height="51.19047619047619" as="geometry" />
        </mxCell>
        <mxCell id="GlQa1Pj1re7O2YrvIxKQ-5" value="" style="rounded=1;whiteSpace=wrap;html=1;strokeOpacity=100;" parent="GlQa1Pj1re7O2YrvIxKQ-47" vertex="1">
          <mxGeometry x="281.60458452722065" y="40.95238095238095" width="113.46704871060172" height="51.19047619047619" as="geometry" />
        </mxCell>
        <mxCell id="GlQa1Pj1re7O2YrvIxKQ-6" value="" style="rounded=1;whiteSpace=wrap;html=1;strokeOpacity=100;" parent="GlQa1Pj1re7O2YrvIxKQ-47" vertex="1">
          <mxGeometry x="250.65902578796562" y="194.52380952380952" width="123.78223495702007" height="61.42857142857142" as="geometry" />
        </mxCell>
        <mxCell id="GlQa1Pj1re7O2YrvIxKQ-7" value="" style="rounded=1;whiteSpace=wrap;html=1;strokeOpacity=100;" parent="GlQa1Pj1re7O2YrvIxKQ-47" vertex="1">
          <mxGeometry x="260.974212034384" y="311.2380952380952" width="123.78223495702007" height="61.42857142857142" as="geometry" />
        </mxCell>
        <mxCell id="GlQa1Pj1re7O2YrvIxKQ-8" value="" style="rounded=1;whiteSpace=wrap;html=1;strokeOpacity=100;" parent="GlQa1Pj1re7O2YrvIxKQ-47" vertex="1">
          <mxGeometry x="549.7994269340975" y="46.07142857142857" width="123.78223495702007" height="61.42857142857142" as="geometry" />
        </mxCell>
        <mxCell id="GlQa1Pj1re7O2YrvIxKQ-9" value="" style="rounded=1;whiteSpace=wrap;html=1;strokeOpacity=100;" parent="GlQa1Pj1re7O2YrvIxKQ-47" vertex="1">
          <mxGeometry x="554.9570200573066" y="255.95238095238093" width="123.78223495702007" height="61.42857142857142" as="geometry" />
        </mxCell>
        <mxCell id="GlQa1Pj1re7O2YrvIxKQ-12" value="" style="ellipse;whiteSpace=wrap;html=1;aspect=fixed;fillColor=#fad7ac;strokeColor=#b46504;strokeOpacity=100;" parent="GlQa1Pj1re7O2YrvIxKQ-47" vertex="1">
          <mxGeometry x="39.19770773638969" y="316.35714285714283" width="55" height="55" as="geometry" />
        </mxCell>
        <mxCell id="GlQa1Pj1re7O2YrvIxKQ-13" value="Resource Orchestrator&amp;nbsp;" style="text;html=1;strokeColor=none;fillColor=none;align=center;verticalAlign=middle;whiteSpace=wrap;rounded=0;fontStyle=1;fontSize=14;strokeOpacity=100;" parent="GlQa1Pj1re7O2YrvIxKQ-47" vertex="1">
          <mxGeometry x="126.87679083094557" y="40.95238095238095" width="92.83667621776505" height="51.19047619047619" as="geometry" />
        </mxCell>
        <mxCell id="GlQa1Pj1re7O2YrvIxKQ-14" value="SDN Controller" style="text;html=1;strokeColor=none;fillColor=none;align=center;verticalAlign=middle;whiteSpace=wrap;rounded=0;fontSize=14;fontStyle=1;strokeOpacity=100;" parent="GlQa1Pj1re7O2YrvIxKQ-47" vertex="1">
          <mxGeometry x="291.91977077363896" y="48.63095238095238" width="92.83667621776505" height="33.27380952380952" as="geometry" />
        </mxCell>
        <mxCell id="GlQa1Pj1re7O2YrvIxKQ-15" value="SC Agent" style="text;html=1;strokeColor=none;fillColor=none;align=center;verticalAlign=middle;whiteSpace=wrap;rounded=0;fontStyle=1;fontSize=14;strokeOpacity=100;" parent="GlQa1Pj1re7O2YrvIxKQ-47" vertex="1">
          <mxGeometry x="266.13180515759313" y="199.64285714285714" width="92.83667621776505" height="51.19047619047619" as="geometry" />
        </mxCell>
        <mxCell id="GlQa1Pj1re7O2YrvIxKQ-16" value="MEC Agent&amp;nbsp;" style="text;html=1;strokeColor=none;fillColor=none;align=center;verticalAlign=middle;whiteSpace=wrap;rounded=0;fontStyle=1;fontSize=14;strokeOpacity=100;" parent="GlQa1Pj1re7O2YrvIxKQ-47" vertex="1">
          <mxGeometry x="276.44699140401144" y="316.35714285714283" width="92.83667621776505" height="51.19047619047619" as="geometry" />
        </mxCell>
        <mxCell id="GlQa1Pj1re7O2YrvIxKQ-17" value="Master Node" style="text;html=1;strokeColor=none;fillColor=none;align=center;verticalAlign=middle;whiteSpace=wrap;rounded=0;fontStyle=1;fontSize=14;strokeOpacity=100;" parent="GlQa1Pj1re7O2YrvIxKQ-47" vertex="1">
          <mxGeometry x="565.2722063037249" y="48.63095238095238" width="92.83667621776505" height="51.19047619047619" as="geometry" />
        </mxCell>
        <mxCell id="GlQa1Pj1re7O2YrvIxKQ-18" value="Service Orchestrator&amp;nbsp;" style="text;html=1;strokeColor=none;fillColor=none;align=center;verticalAlign=middle;whiteSpace=wrap;rounded=0;fontStyle=1;fontSize=14;strokeOpacity=100;" parent="GlQa1Pj1re7O2YrvIxKQ-47" vertex="1">
          <mxGeometry x="570.4297994269342" y="260.04761904761904" width="92.83667621776505" height="51.19047619047619" as="geometry" />
        </mxCell>
        <mxCell id="GlQa1Pj1re7O2YrvIxKQ-20" value="" style="endArrow=classic;startArrow=classic;html=1;fontSize=22;exitX=0.5;exitY=0;exitDx=0;exitDy=0;strokeOpacity=100;" parent="GlQa1Pj1re7O2YrvIxKQ-47" edge="1">
          <mxGeometry width="50" height="50" relative="1" as="geometry">
            <mxPoint x="620.9742120343839" y="255.95238095238093" as="sourcePoint" />
            <mxPoint x="620.458452722063" y="106.47619047619047" as="targetPoint" />
            <Array as="points" />
          </mxGeometry>
        </mxCell>
        <mxCell id="GlQa1Pj1re7O2YrvIxKQ-23" value="&lt;font style=&quot;font-size: 15px&quot;&gt;&lt;b&gt;Start&lt;/b&gt;&lt;/font&gt;" style="text;html=1;strokeColor=none;fillColor=none;align=center;verticalAlign=middle;whiteSpace=wrap;rounded=0;fontSize=22;strokeOpacity=100;" parent="GlQa1Pj1re7O2YrvIxKQ-47" vertex="1">
          <mxGeometry y="44.535714285714285" width="41.260744985673355" height="20.476190476190474" as="geometry" />
        </mxCell>
        <mxCell id="GlQa1Pj1re7O2YrvIxKQ-24" value="&lt;font style=&quot;font-size: 15px&quot;&gt;&lt;b&gt;End&lt;/b&gt;&lt;/font&gt;" style="text;html=1;strokeColor=none;fillColor=none;align=center;verticalAlign=middle;whiteSpace=wrap;rounded=0;fontSize=22;strokeOpacity=100;" parent="GlQa1Pj1re7O2YrvIxKQ-47" vertex="1">
          <mxGeometry x="46.93409742120344" y="334.2738095238095" width="41.260744985673355" height="20.476190476190474" as="geometry" />
        </mxCell>
        <mxCell id="GlQa1Pj1re7O2YrvIxKQ-26" value="" style="endArrow=classic;startArrow=classic;html=1;fontSize=22;entryX=1;entryY=0.5;entryDx=0;entryDy=0;strokeOpacity=100;" parent="GlQa1Pj1re7O2YrvIxKQ-47" target="GlQa1Pj1re7O2YrvIxKQ-6" edge="1">
          <mxGeometry width="50" height="50" relative="1" as="geometry">
            <mxPoint x="622.0057306590259" y="214.99999999999997" as="sourcePoint" />
            <mxPoint x="384.756446991404" y="225.2380952380952" as="targetPoint" />
            <Array as="points" />
          </mxGeometry>
        </mxCell>
        <mxCell id="GlQa1Pj1re7O2YrvIxKQ-27" value="" style="endArrow=classic;startArrow=classic;html=1;fontSize=22;exitX=-0.025;exitY=0.367;exitDx=0;exitDy=0;exitPerimeter=0;strokeOpacity=100;" parent="GlQa1Pj1re7O2YrvIxKQ-47" edge="1">
          <mxGeometry width="50" height="50" relative="1" as="geometry">
            <mxPoint x="549.7994269340975" y="68.61571428571426" as="sourcePoint" />
            <mxPoint x="396.10315186246413" y="70.64285714285714" as="targetPoint" />
            <Array as="points" />
          </mxGeometry>
        </mxCell>
        <mxCell id="GlQa1Pj1re7O2YrvIxKQ-28" value="" style="endArrow=classic;startArrow=classic;html=1;fontSize=22;strokeOpacity=100;" parent="GlQa1Pj1re7O2YrvIxKQ-47" edge="1">
          <mxGeometry width="50" height="50" relative="1" as="geometry">
            <mxPoint x="281.60458452722065" y="71.66666666666666" as="sourcePoint" />
            <mxPoint x="240.34383954154728" y="71.66666666666666" as="targetPoint" />
            <Array as="points">
              <mxPoint x="240.34383954154728" y="71.66666666666666" />
            </Array>
          </mxGeometry>
        </mxCell>
        <mxCell id="GlQa1Pj1re7O2YrvIxKQ-29" value="" style="endArrow=classic;startArrow=classic;html=1;fontSize=22;exitX=0;exitY=0.5;exitDx=0;exitDy=0;strokeOpacity=100;" parent="GlQa1Pj1re7O2YrvIxKQ-47" source="GlQa1Pj1re7O2YrvIxKQ-7" edge="1">
          <mxGeometry width="50" height="50" relative="1" as="geometry">
            <mxPoint x="250.65902578796562" y="343.4983333333333" as="sourcePoint" />
            <mxPoint x="96.96275071633238" y="345.5254761904762" as="targetPoint" />
            <Array as="points" />
          </mxGeometry>
        </mxCell>
        <mxCell id="GlQa1Pj1re7O2YrvIxKQ-30" value="" style="endArrow=classic;html=1;fontSize=22;exitX=0.982;exitY=0.636;exitDx=0;exitDy=0;entryX=0;entryY=0.5;entryDx=0;entryDy=0;exitPerimeter=0;strokeOpacity=100;" parent="GlQa1Pj1re7O2YrvIxKQ-47" source="GlQa1Pj1re7O2YrvIxKQ-11" target="GlQa1Pj1re7O2YrvIxKQ-4" edge="1">
          <mxGeometry width="50" height="50" relative="1" as="geometry">
            <mxPoint x="384.756446991404" y="266.19047619047615" as="sourcePoint" />
            <mxPoint x="436.3323782234957" y="214.99999999999997" as="targetPoint" />
          </mxGeometry>
        </mxCell>
        <mxCell id="GlQa1Pj1re7O2YrvIxKQ-31" value="" style="endArrow=classic;html=1;fontSize=22;exitX=0.5;exitY=1;exitDx=0;exitDy=0;strokeOpacity=100;" parent="GlQa1Pj1re7O2YrvIxKQ-47" source="GlQa1Pj1re7O2YrvIxKQ-5" edge="1">
          <mxGeometry width="50" height="50" relative="1" as="geometry">
            <mxPoint x="384.756446991404" y="266.19047619047615" as="sourcePoint" />
            <mxPoint x="336.2750716332378" y="194.52380952380952" as="targetPoint" />
          </mxGeometry>
        </mxCell>
        <mxCell id="GlQa1Pj1re7O2YrvIxKQ-33" value="" style="endArrow=classic;html=1;fontSize=22;entryX=0.611;entryY=-0.02;entryDx=0;entryDy=0;entryPerimeter=0;strokeOpacity=100;" parent="GlQa1Pj1re7O2YrvIxKQ-47" target="GlQa1Pj1re7O2YrvIxKQ-16" edge="1">
          <mxGeometry width="50" height="50" relative="1" as="geometry">
            <mxPoint x="333.1805157593123" y="255.95238095238093" as="sourcePoint" />
            <mxPoint x="346.5902578796561" y="204.76190476190476" as="targetPoint" />
          </mxGeometry>
        </mxCell>
        <mxCell id="GlQa1Pj1re7O2YrvIxKQ-34" value="&lt;font size=&quot;1&quot;&gt;&lt;b&gt;Service request and Control Signals&amp;nbsp;&lt;/b&gt;&lt;/font&gt;" style="text;html=1;strokeColor=none;fillColor=none;align=center;verticalAlign=middle;whiteSpace=wrap;rounded=0;fontSize=22;strokeOpacity=100;" parent="GlQa1Pj1re7O2YrvIxKQ-47" vertex="1">
          <mxGeometry x="95.93123209169055" width="319.7707736389685" height="20.476190476190474" as="geometry" />
        </mxCell>
        <mxCell id="GlQa1Pj1re7O2YrvIxKQ-35" value="&lt;font size=&quot;1&quot;&gt;&lt;b&gt;Request Servicing&lt;/b&gt;&lt;/font&gt;" style="text;html=1;strokeColor=none;fillColor=none;align=center;verticalAlign=middle;whiteSpace=wrap;rounded=0;fontSize=22;strokeOpacity=100;" parent="GlQa1Pj1re7O2YrvIxKQ-47" vertex="1">
          <mxGeometry x="219.71346704871058" y="404.40476190476187" width="185.6733524355301" height="20.476190476190474" as="geometry" />
        </mxCell>
        <mxCell id="GlQa1Pj1re7O2YrvIxKQ-36" value="&lt;font size=&quot;1&quot;&gt;&lt;b&gt;Management and Elasticity&lt;/b&gt;&lt;/font&gt;" style="text;html=1;strokeColor=none;fillColor=none;align=center;verticalAlign=middle;whiteSpace=wrap;rounded=0;fontSize=22;strokeOpacity=100;" parent="GlQa1Pj1re7O2YrvIxKQ-47" vertex="1">
          <mxGeometry x="510.6017191977077" y="341.9523809523809" width="201.1461318051576" height="20.476190476190474" as="geometry" />
        </mxCell>
        <mxCell id="3VbDmw7BY3QkZxuRdBKf-2" value="" style="ellipse;whiteSpace=wrap;html=1;" vertex="1" parent="GlQa1Pj1re7O2YrvIxKQ-47">
          <mxGeometry x="65.93" y="46.06999999999999" width="30" height="20" as="geometry" />
        </mxCell>
        <mxCell id="3VbDmw7BY3QkZxuRdBKf-3" value="" style="ellipse;whiteSpace=wrap;html=1;" vertex="1" parent="GlQa1Pj1re7O2YrvIxKQ-47">
          <mxGeometry x="150" y="324" width="30" height="20" as="geometry" />
        </mxCell>
        <mxCell id="3VbDmw7BY3QkZxuRdBKf-4" style="edgeStyle=orthogonalEdgeStyle;rounded=0;orthogonalLoop=1;jettySize=auto;html=1;exitX=0.5;exitY=1;exitDx=0;exitDy=0;" edge="1" parent="GlQa1Pj1re7O2YrvIxKQ-47" source="3VbDmw7BY3QkZxuRdBKf-2" target="3VbDmw7BY3QkZxuRdBKf-2">
          <mxGeometry relative="1" as="geometry" />
        </mxCell>
        <mxCell id="3VbDmw7BY3QkZxuRdBKf-5" value="" style="ellipse;whiteSpace=wrap;html=1;" vertex="1" parent="GlQa1Pj1re7O2YrvIxKQ-47">
          <mxGeometry x="246.45" y="48.629999999999995" width="30" height="20" as="geometry" />
        </mxCell>
        <mxCell id="3VbDmw7BY3QkZxuRdBKf-6" value="" style="ellipse;whiteSpace=wrap;html=1;" vertex="1" parent="GlQa1Pj1re7O2YrvIxKQ-47">
          <mxGeometry x="339.28" y="143.32999999999998" width="30" height="20" as="geometry" />
        </mxCell>
        <mxCell id="3VbDmw7BY3QkZxuRdBKf-7" value="" style="ellipse;whiteSpace=wrap;html=1;" vertex="1" parent="GlQa1Pj1re7O2YrvIxKQ-47">
          <mxGeometry x="328.96999999999997" y="275.64" width="30" height="20" as="geometry" />
        </mxCell>
        <mxCell id="3VbDmw7BY3QkZxuRdBKf-9" value="" style="ellipse;whiteSpace=wrap;html=1;" vertex="1" parent="GlQa1Pj1re7O2YrvIxKQ-47">
          <mxGeometry x="460" y="199.64" width="30" height="20" as="geometry" />
        </mxCell>
        <mxCell id="3VbDmw7BY3QkZxuRdBKf-11" value="" style="ellipse;whiteSpace=wrap;html=1;" vertex="1" parent="GlQa1Pj1re7O2YrvIxKQ-47">
          <mxGeometry x="460" y="48.629999999999995" width="30" height="20" as="geometry" />
        </mxCell>
        <mxCell id="3VbDmw7BY3QkZxuRdBKf-12" value="" style="ellipse;whiteSpace=wrap;html=1;" vertex="1" parent="GlQa1Pj1re7O2YrvIxKQ-47">
          <mxGeometry x="590" y="163.32999999999998" width="30" height="20" as="geometry" />
        </mxCell>
        <mxCell id="3VbDmw7BY3QkZxuRdBKf-14" value="&lt;b&gt;1&lt;/b&gt;" style="text;html=1;align=center;verticalAlign=middle;resizable=0;points=[];autosize=1;" vertex="1" parent="GlQa1Pj1re7O2YrvIxKQ-47">
          <mxGeometry x="70.93" y="45.010000000000005" width="20" height="20" as="geometry" />
        </mxCell>
        <mxCell id="3VbDmw7BY3QkZxuRdBKf-13" value="&lt;b&gt;5&lt;/b&gt;" style="text;html=1;align=center;verticalAlign=middle;resizable=0;points=[];autosize=1;" vertex="1" parent="GlQa1Pj1re7O2YrvIxKQ-47">
          <mxGeometry x="155" y="324" width="20" height="20" as="geometry" />
        </mxCell>
        <mxCell id="3VbDmw7BY3QkZxuRdBKf-15" value="&lt;b&gt;2&lt;/b&gt;" style="text;html=1;align=center;verticalAlign=middle;resizable=0;points=[];autosize=1;" vertex="1" parent="GlQa1Pj1re7O2YrvIxKQ-47">
          <mxGeometry x="251.6" y="48.629999999999995" width="20" height="20" as="geometry" />
        </mxCell>
        <mxCell id="3VbDmw7BY3QkZxuRdBKf-16" value="&lt;b&gt;8&lt;/b&gt;" style="text;html=1;align=center;verticalAlign=middle;resizable=0;points=[];autosize=1;" vertex="1" parent="GlQa1Pj1re7O2YrvIxKQ-47">
          <mxGeometry x="465" y="48.629999999999995" width="20" height="20" as="geometry" />
        </mxCell>
        <mxCell id="3VbDmw7BY3QkZxuRdBKf-17" value="&lt;b&gt;3&lt;/b&gt;" style="text;html=1;align=center;verticalAlign=middle;resizable=0;points=[];autosize=1;" vertex="1" parent="GlQa1Pj1re7O2YrvIxKQ-47">
          <mxGeometry x="344.28000000000003" y="143.33" width="20" height="20" as="geometry" />
        </mxCell>
        <mxCell id="3VbDmw7BY3QkZxuRdBKf-18" value="4" style="text;html=1;align=center;verticalAlign=middle;resizable=0;points=[];autosize=1;" vertex="1" parent="GlQa1Pj1re7O2YrvIxKQ-47">
          <mxGeometry x="333.97" y="276.67" width="20" height="20" as="geometry" />
        </mxCell>
        <mxCell id="3VbDmw7BY3QkZxuRdBKf-19" value="6" style="text;html=1;align=center;verticalAlign=middle;resizable=0;points=[];autosize=1;" vertex="1" parent="GlQa1Pj1re7O2YrvIxKQ-47">
          <mxGeometry x="465" y="199.64000000000001" width="20" height="20" as="geometry" />
        </mxCell>
        <mxCell id="3VbDmw7BY3QkZxuRdBKf-66" value="7" style="text;html=1;align=center;verticalAlign=middle;resizable=0;points=[];autosize=1;" vertex="1" parent="GlQa1Pj1re7O2YrvIxKQ-47">
          <mxGeometry x="595" y="163.33" width="20" height="20" as="geometry" />
        </mxCell>
      </root>
    </mxGraphModel>
  </diagram>
</mxfile>
